<svg width="149" height="149" viewBox="0 0 149 149" fill="none" xmlns="http://www.w3.org/2000/svg">
<g filter="url(#filter0_d_1_22)">
<path d="M74.5 137C112.332 137 143 106.332 143 68.5C143 30.6685 112.332 0 74.5 0C36.6685 0 6 30.6685 6 68.5C6 106.332 36.6685 137 74.5 137Z" fill="#F2F2F2"/>
<path d="M136.927 69.3569C136.928 77.5441 135.316 85.6511 132.183 93.2152C129.05 100.779 124.458 107.652 118.669 113.441C112.88 119.23 106.007 123.823 98.4428 126.955C90.8787 130.088 82.7716 131.7 74.5845 131.7C67.2873 131.696 60.0467 130.419 53.1879 127.928C42.4635 124.021 33.0166 117.247 25.8755 108.343C18.7344 99.4391 14.173 88.7467 12.6877 77.4299C11.2025 66.1131 12.8504 54.6057 17.4521 44.1606C22.0537 33.7154 29.4328 24.7329 38.7858 18.191C48.1388 11.649 59.1073 7.79841 70.4971 7.05831C81.8869 6.31821 93.2615 8.71702 103.382 13.9936C113.503 19.2701 121.983 27.2222 127.897 36.9839C133.812 46.7457 136.935 57.9431 136.927 69.3569Z" fill="white"/>
<path d="M53.719 76.1967C64.3459 76.1967 72.9606 67.5819 72.9606 56.9551C72.9606 46.3282 64.3459 37.7135 53.719 37.7135C43.0922 37.7135 34.4775 46.3282 34.4775 56.9551C34.4775 67.5819 43.0922 76.1967 53.719 76.1967Z" fill="#E4E4E4"/>
<path d="M134.495 52.0625C130.325 54.0688 125.571 54.505 121.106 53.2911C116.64 52.0773 112.761 49.2948 110.18 45.4535C107.6 41.6123 106.49 36.9696 107.054 32.3764C107.618 27.7832 109.819 23.5472 113.252 20.4447C123.456 28.5116 130.884 39.5663 134.495 52.0625Z" fill="#F2F2F2"/>
<path d="M95.3654 97.0648C99.1911 97.0648 102.292 93.9634 102.292 90.1378C102.292 86.3121 99.1911 83.2108 95.3654 83.2108C91.5398 83.2108 88.4385 86.3121 88.4385 90.1378C88.4385 93.9634 91.5398 97.0648 95.3654 97.0648Z" fill="#E4E4E4"/>
<path d="M66.8879 129.391C66.8873 129.999 66.8071 130.604 66.6493 131.192C62.0531 130.617 57.5371 129.522 53.1879 127.928C53.5491 126.257 54.5156 124.778 55.9015 123.777C57.2874 122.775 58.9948 122.321 60.695 122.503C62.3953 122.684 63.9684 123.488 65.1117 124.76C66.2549 126.031 66.8876 127.681 66.8879 129.391Z" fill="#F2F2F2"/>
<path d="M26.0958 66.2782C26.0955 69.7925 24.7597 73.1754 22.3589 75.7419C19.9582 78.3084 16.6719 79.8667 13.1655 80.1014C11.5783 70.9524 12.041 61.5653 14.5201 52.6167C17.7541 53.1559 20.6921 54.8246 22.8116 57.326C24.9312 59.8275 26.0949 62.9995 26.0958 66.2782Z" fill="#F2F2F2"/>
<path d="M95.1543 67.1056C95.1543 67.1056 94.0149 70.2728 92.2369 74.8235C91.6619 76.3017 91.018 77.9243 90.3238 79.6323C89.3566 82.0107 88.2914 84.5549 87.1759 87.0991C86.4896 88.6649 85.7848 90.2284 85.072 91.7563C81.2405 99.9456 77.1599 107.04 74.4863 107.14C68.4794 107.363 55.6122 71.4312 54.2079 67.4609C54.1257 67.2288 54.0833 67.1056 54.0833 67.1056H95.1543Z" fill="#DDBEA9"/>
<path opacity="0.1" d="M92.2368 74.8235C91.6619 76.3017 91.018 77.9243 90.3237 79.6323L74.412 67.1056H82.4328L92.2368 74.8235Z" fill="black"/>
<path opacity="0.1" d="M87.1759 87.0991C86.4896 88.6649 85.7848 90.2284 85.072 91.7563L54.2079 67.4609C54.1257 67.2288 54.0833 67.1056 54.0833 67.1056H61.7782L87.1759 87.0991Z" fill="black"/>
<path d="M75.331 35.2821C73.4482 36.6154 70.471 36.1113 68.6615 37.5234C67.4238 38.4894 67.0936 40.1411 67.4313 41.5786C67.7691 43.0161 68.6665 44.2916 69.5694 45.5187C70.1925 46.3657 70.839 47.2193 71.7145 47.8634C72.9387 48.764 74.5097 49.1832 76.0497 49.5199C79.4032 50.253 82.8277 50.6968 86.276 50.8452C87.8138 50.9113 89.5554 50.8452 90.5914 49.8272C91.1948 49.2343 91.4374 48.4219 91.6142 47.6362C91.8908 46.4071 92.0445 45.0838 91.473 43.939C91.0032 42.9979 90.0991 42.2926 89.1837 41.6664C86.3124 39.7021 82.9306 38.0759 81.1782 35.2487C80.4816 34.125 80.0521 32.8228 78.9963 31.9508C77.6201 30.8144 74.5581 30.3497 72.9378 31.1089C73.1881 31.6191 76.4597 34.4828 75.331 35.2821Z" fill="#DEAAFF"/>
<path d="M59.5093 48.5343C58.9511 50.2649 58.4368 52.096 58.9069 53.8474C59.5266 56.1567 61.7913 57.8861 64.2756 58.7267C66.7599 59.5673 69.4691 59.6654 72.1235 59.7541L86.0215 60.2181C87.7681 60.2765 89.5483 60.3405 91.1898 60.8772C92.5427 61.3196 94.1507 62.0481 95.2786 61.247C95.7902 60.8836 96.02 60.2952 96.2015 59.7341C96.7922 57.9082 97.1227 55.9032 96.3283 54.1402C95.418 52.1199 93.1733 50.7923 90.8427 50.1578C88.5121 49.5232 86.0439 49.4614 83.6224 49.2218C81.166 48.9786 78.7372 48.5488 76.3625 47.937C74.3771 47.4254 72.3657 46.7505 70.8972 45.4511C70.1028 44.7482 69.5013 43.8911 68.7526 43.1492C64.4636 38.8998 60.5642 45.264 59.5093 48.5343Z" fill="#DEAAFF"/>
<path d="M56.4554 56.485C55.1036 57.0263 53.9311 57.8705 53.0514 58.9359C52.1717 60.0012 51.6147 61.2516 51.4342 62.5659C51.2537 63.8802 51.456 65.214 52.0213 66.4379C52.5866 67.6618 53.4959 68.7345 54.6611 69.552C56.7773 71.0368 59.5467 71.5532 62.2298 71.726C64.8498 71.8948 67.4811 71.7787 70.1047 71.6625L93.3176 70.6346C94.6783 70.5744 96.2183 70.4344 97.0489 69.469C97.6688 68.7485 97.7052 67.7547 97.5572 66.8554C97.0248 63.6204 94.2925 60.7564 90.8032 59.776C89.4873 59.4062 88.1018 59.2892 86.7284 59.1743L76.7776 58.3419C75.4376 58.2298 74.0897 58.1165 72.791 57.8009C68.8559 56.8446 65.3398 54.0526 61.2882 54.466C58.5396 54.7465 56.2766 56.4668 54.2799 58.1787" fill="#DEAAFF"/>
<path opacity="0.1" d="M69.4518 42.4691C69.4518 42.4691 72.6996 47.7114 89.3589 49.8281L69.4518 42.4691Z" fill="black"/>
<path opacity="0.1" d="M60.2367 56.1995C60.2367 56.1995 66.2721 61.6571 91.1796 61.6571L60.2367 56.1995Z" fill="black"/>
<path d="M74.2213 39.8633C75.0994 39.8633 75.8111 39.6512 75.8111 39.3896C75.8111 39.1279 75.0994 38.9158 74.2213 38.9158C73.3433 38.9158 72.6315 39.1279 72.6315 39.3896C72.6315 39.6512 73.3433 39.8633 74.2213 39.8633Z" fill="#7D1AAB"/>
<path d="M79.5208 42.9429C80.3988 42.9429 81.1106 42.7308 81.1106 42.4691C81.1106 42.2075 80.3988 41.9954 79.5208 41.9954C78.6427 41.9954 77.9309 42.2075 77.9309 42.4691C77.9309 42.7308 78.6427 42.9429 79.5208 42.9429Z" fill="#7D1AAB"/>
<path d="M85.6152 46.2593C86.4932 46.2593 87.205 46.0472 87.205 45.7855C87.205 45.5239 86.4932 45.3118 85.6152 45.3118C84.7371 45.3118 84.0253 45.5239 84.0253 45.7855C84.0253 46.0472 84.7371 46.2593 85.6152 46.2593Z" fill="#7D1AAB"/>
<path d="M64.4172 47.6807C65.2953 47.6807 66.0071 47.4686 66.0071 47.2069C66.0071 46.9453 65.2953 46.7332 64.4172 46.7332C63.5392 46.7332 62.8274 46.9453 62.8274 47.2069C62.8274 47.4686 63.5392 47.6807 64.4172 47.6807Z" fill="#7D1AAB"/>
<path d="M77.9309 52.1816C78.8089 52.1816 79.5207 51.9694 79.5207 51.7078C79.5207 51.4461 78.8089 51.234 77.9309 51.234C77.0529 51.234 76.3411 51.4461 76.3411 51.7078C76.3411 51.9694 77.0529 52.1816 77.9309 52.1816Z" fill="#7D1AAB"/>
<path d="M58.8528 61.4202C59.7309 61.4202 60.4426 61.2081 60.4426 60.9464C60.4426 60.6848 59.7309 60.4727 58.8528 60.4727C57.9748 60.4727 57.263 60.6848 57.263 60.9464C57.263 61.2081 57.9748 61.4202 58.8528 61.4202Z" fill="#7D1AAB"/>
<path d="M68.9218 52.6553C69.7999 52.6553 70.5117 52.4432 70.5117 52.1815C70.5117 51.9199 69.7999 51.7078 68.9218 51.7078C68.0438 51.7078 67.332 51.9199 67.332 52.1815C67.332 52.4432 68.0438 52.6553 68.9218 52.6553Z" fill="#7D1AAB"/>
<path d="M62.8274 64.9737C63.7055 64.9737 64.4173 64.7616 64.4173 64.4999C64.4173 64.2382 63.7055 64.0261 62.8274 64.0261C61.9494 64.0261 61.2376 64.2382 61.2376 64.4999C61.2376 64.7616 61.9494 64.9737 62.8274 64.9737Z" fill="#7D1AAB"/>
<path d="M73.1614 62.8416C74.0394 62.8416 74.7512 62.6295 74.7512 62.3678C74.7512 62.1062 74.0394 61.894 73.1614 61.894C72.2833 61.894 71.5715 62.1062 71.5715 62.3678C71.5715 62.6295 72.2833 62.8416 73.1614 62.8416Z" fill="#7D1AAB"/>
<path d="M79.3883 74.2123C80.3395 74.2123 81.1106 72.7805 81.1106 71.0143C81.1106 69.2481 80.3395 67.8163 79.3883 67.8163C78.4371 67.8163 77.666 69.2481 77.666 71.0143C77.666 72.7805 78.4371 74.2123 79.3883 74.2123Z" fill="#DEAAFF"/>
<path d="M81.5081 75.3968C82.4593 75.3968 83.2304 73.965 83.2304 72.1987C83.2304 70.4325 82.4593 69.0007 81.5081 69.0007C80.5569 69.0007 79.7857 70.4325 79.7857 72.1987C79.7857 73.965 80.5569 75.3968 81.5081 75.3968Z" fill="#DEAAFF"/>
</g>
<defs>
<filter id="filter0_d_1_22" x="0" y="0" width="149" height="149" filterUnits="userSpaceOnUse" color-interpolation-filters="sRGB">
<feFlood flood-opacity="0" result="BackgroundImageFix"/>
<feColorMatrix in="SourceAlpha" type="matrix" values="0 0 0 0 0 0 0 0 0 0 0 0 0 0 0 0 0 0 127 0" result="hardAlpha"/>
<feOffset dy="6"/>
<feGaussianBlur stdDeviation="3"/>
<feComposite in2="hardAlpha" operator="out"/>
<feColorMatrix type="matrix" values="0 0 0 0 0 0 0 0 0 0 0 0 0 0 0 0 0 0 0.25 0"/>
<feBlend mode="normal" in2="BackgroundImageFix" result="effect1_dropShadow_1_22"/>
<feBlend mode="normal" in="SourceGraphic" in2="effect1_dropShadow_1_22" result="shape"/>
</filter>
</defs>
</svg>
